<svg width="80" height="70" viewBox="0 0 80 70" fill="none" xmlns="http://www.w3.org/2000/svg">
<path d="M24.6341 17.9973L6.09753 35.9945H9.51217H12.9268L28.0488 21.3125L43.1219 6.6306L44.7317 8.14615L46.3414 9.66171L48.0488 8.00407L49.7561 6.39379L46.439 3.17324L43.1707 4.19617e-05L24.6341 17.9973Z" fill="white"/>
<path d="M39.2683 17.9973L20.7317 35.9945H24.1463H27.561L42.6829 21.3125L57.7561 6.6306L59.3658 8.14615L60.9756 9.66171L62.6829 8.00407L64.3902 6.39379L61.0732 3.17324L57.8049 4.19617e-05L39.2683 17.9973Z" fill="white"/>
<path d="M53.9024 17.9973L35.3658 35.9945H38.7805H42.1951L57.3171 21.3125L72.4878 6.6306L74.1463 8.28823C75.0732 9.1881 76.0488 9.94587 76.3415 9.94587C76.6341 9.94587 77.5122 9.28282 78.2927 8.52504L79.7073 7.05684L76.0976 3.55212L72.439 4.19617e-05L53.9024 17.9973Z" fill="white"/>
<path d="M67.3171 22.2597V24.6278H69.5123H71.7074V22.2597V19.8917H69.5123H67.3171V22.2597Z" fill="white"/>
<path d="M73.2683 22.1177L73.4146 24.391L75.7561 24.5331L78.0488 24.6752V22.3071V19.8917H75.561H73.1219L73.2683 22.1177Z" fill="white"/>
<path d="M67.3171 28.1799V30.3112H69.5123H71.7074V28.1799V26.0487H69.5123H67.3171V28.1799Z" fill="white"/>
<path d="M73.1708 28.1799V30.3112H75.6098H78.0488V28.1799V26.0487H75.6098H73.1708V28.1799Z" fill="white"/>
<path d="M20.5366 44.5195C19.6585 44.7089 18.1951 45.5614 17.3658 46.3665C16 47.6927 15.8536 48.1663 15.8536 50.6764C15.8536 53.0918 16.0488 53.6602 17.2683 54.8915C19.7073 57.3543 24.8292 57.7332 28.0975 55.6493C29.5122 54.7495 30.7317 52.2867 30.7317 50.2975C30.7317 48.5925 28.9268 45.8929 27.2683 45.1352C25.561 44.33 22.4878 44.0458 20.5366 44.5195ZM26.3414 48.2136C27.6097 49.7292 27.561 51.6236 26.2927 53.2339C25.5122 54.2285 24.878 54.4653 23.1707 54.4653C21.4634 54.4653 20.8292 54.2285 20.0488 53.2339C18.1463 50.8658 19.0244 47.6453 21.7561 46.9349C23.7561 46.4139 25.2683 46.8402 26.3414 48.2136Z" fill="white"/>
<path d="M0 50.6764V56.8333H1.46341H2.87805L3.02439 52.4288L3.17073 48.0715L6.29268 52.4288C9.31707 56.6913 9.5122 56.8333 11.3171 56.8333H13.1707V50.6764V44.5195H11.7073H10.2439V48.8767V53.1865L7.07317 48.8767C3.95122 44.6615 3.80488 44.5195 1.95122 44.5195H0V50.6764Z" fill="white"/>
<path d="M33.1708 50.6764V56.8333H34.6342H36.0488L36.1952 52.9024L36.3415 49.0188L38.0488 52.9497C39.6098 56.6439 39.8049 56.8807 41.0732 56.7386C42.2927 56.5965 42.683 56.1229 44.3903 52.5708L46.3415 48.5451V52.6656V56.8333H47.8049H49.2683V50.6764V44.5195H47.3171H45.3659L43.2196 48.8767L41.122 53.2813L39.5122 49.966C38.683 48.1189 37.7561 46.1771 37.5122 45.5614C37.1708 44.7089 36.7318 44.5195 35.122 44.5195H33.1708V50.6764Z" fill="white"/>
<path d="M53.6097 50.487C52.0488 53.7549 50.7317 56.5492 50.7317 56.6439C50.7317 56.7386 51.4634 56.8333 52.3902 56.8333C53.8049 56.8333 54.1463 56.5965 54.5853 55.4125C55.0244 54.0864 55.2195 53.9917 57.7561 53.9917C60.2927 53.9917 60.5366 54.0864 61.2195 55.4125C61.8536 56.5492 62.2927 56.8333 63.6585 56.8333H65.3171L64.1951 54.3232C59.6097 44.4721 59.6585 44.5195 58.0488 44.5195C56.5853 44.5195 56.439 44.7089 53.6097 50.487ZM58.9268 50.2028C59.4634 51.6236 59.4634 51.6236 57.7561 51.6236C56.8293 51.6236 56.1463 51.4342 56.2927 51.1974C56.439 51.0079 56.7805 50.2501 57.0732 49.5397C57.6585 48.0242 58.2439 48.2136 58.9268 50.2028Z" fill="white"/>
<path d="M66.8292 50.7238V56.9281L71.3658 56.7386C77.9512 56.4545 80 54.9863 80 50.629C80 46.1771 77.5609 44.5195 71.0243 44.5195H66.8292V50.7238ZM75.6097 48.0715C76.2439 48.6399 76.5853 49.5397 76.5853 50.6764C76.5853 52.9971 75.317 54.0864 72.1951 54.3706L69.7561 54.6074V50.6764V46.7454L72.1951 46.9822C73.5609 47.1243 75.0731 47.5979 75.6097 48.0715Z" fill="white"/>
<path d="M19.9547 62.8402C17.9592 63.8695 17.4604 67.1389 19.0817 68.8341C20.5159 70.3477 24.3822 70.4082 25.7541 68.8946C27.0012 67.5627 27.126 64.3538 26.0035 63.3851C24.5693 62.2953 21.6384 62.0531 19.9547 62.8402ZM24.6316 65.9885C24.6316 69.1368 20.703 69.7422 20.0794 66.715C19.6429 64.7171 20.4536 63.8695 22.5738 64.0511C24.3822 64.2327 24.6316 64.4749 24.6316 65.9885Z" fill="white"/>
<path d="M46.3324 62.7191C43.5886 63.8089 43.0897 66.9572 45.2723 69.0763C46.7065 70.4688 50.261 70.2266 51.8823 68.6525C53.5036 67.0783 52.3188 66.2912 50.5728 67.8048C48.4526 69.6817 45.8335 68.4103 46.27 65.6253C46.3948 64.596 46.956 64.1722 48.2655 64.0511C49.2632 63.93 50.261 64.1722 50.5104 64.5355C50.7599 64.9593 51.4458 65.1409 52.007 65.0198C52.88 64.8987 52.9424 64.6566 52.2565 63.8089C51.2587 62.5375 48.2031 61.9321 46.3324 62.7191Z" fill="white"/>
<path d="M0 66.352C0 69.1975 0.187076 69.9846 0.935379 69.9846C1.43425 69.9846 1.87076 69.4397 1.87076 68.7737C1.87076 67.805 2.30727 67.5628 3.99095 67.5628C6.42293 67.5628 7.6701 66.4125 7.35831 64.4145C7.17124 63.1431 6.79708 63.022 3.6168 62.8404L0 62.6588V66.352ZM5.61227 64.7778C5.61227 65.7465 3.49208 66.6547 2.49434 66.0492C1.12245 65.2016 1.87076 63.9302 3.74151 63.9302C4.92633 63.9302 5.61227 64.2329 5.61227 64.7778Z" fill="white"/>
<path d="M8.73022 66.3518C8.73022 69.1973 8.9173 69.9844 9.6656 69.9844C10.2268 69.9844 10.601 69.379 10.601 68.4103C10.601 67.0783 10.8504 66.8967 12.347 67.0783C13.5318 67.1994 14.0931 67.6232 14.2178 68.5919C14.3425 69.5001 14.8414 69.9844 15.5897 69.9844C16.5874 69.9844 16.6498 69.7422 16.2133 68.047C15.8391 66.8361 15.8391 65.8674 16.2133 65.4436C16.5874 65.0198 16.7121 64.2327 16.4627 63.6878C16.1509 62.9613 15.2155 62.7191 12.4094 62.7191H8.73022V66.3518ZM14.3425 64.8382C14.3425 65.4436 13.7189 65.7463 12.4717 65.7463C11.2246 65.7463 10.601 65.4436 10.601 64.8382C10.601 64.2327 11.2246 63.93 12.4717 63.93C13.7189 63.93 14.3425 64.2327 14.3425 64.8382Z" fill="white"/>
<path d="M31.8029 65.7461C31.8029 68.6523 30.9299 69.8026 30.1816 67.8652C29.6827 66.6543 27.9367 66.7148 28.1861 67.9257C28.4979 69.4393 30.1192 70.2264 31.99 69.742C33.5489 69.3788 33.6737 69.1366 33.6737 66.0489C33.6737 63.506 33.4866 62.7189 32.7383 62.7189C32.0523 62.7189 31.8029 63.4455 31.8029 65.7461Z" fill="white"/>
<path d="M36.168 66.3518V69.9844H39.2859C42.9027 69.9844 43.5263 68.9552 40.0966 68.6524C36.9786 68.4103 36.6668 67.0783 39.66 66.8361C42.9651 66.5939 43.2145 65.1409 39.9718 65.1409C38.5376 65.1409 37.4151 64.8382 37.4151 64.5354C37.4151 64.1722 38.5376 63.93 39.9095 63.93C41.2814 63.93 42.4038 63.6273 42.4038 63.3246C42.4038 62.9613 41.0319 62.7191 39.2859 62.7191H36.168V66.3518Z" fill="white"/>
<path d="M53.6284 63.3246C53.6284 63.6273 54.1896 63.93 54.8756 63.93C55.9357 63.93 56.1228 64.3538 56.1228 66.9572C56.1228 69.2579 56.3722 69.9844 57.0581 69.9844C57.7441 69.9844 57.9935 69.2579 57.9935 66.9572C57.9935 64.3538 58.1806 63.93 59.2407 63.93C59.9266 63.93 60.4879 63.6273 60.4879 63.3246C60.4879 62.9613 58.9289 62.7191 57.0581 62.7191C55.1874 62.7191 53.6284 62.9613 53.6284 63.3246Z" fill="white"/>
</svg>
